<?xml version="1.0" encoding="UTF-8" standalone="no"?>
<!-- Created with Inkscape (http://www.inkscape.org/) -->

<svg
   version="1.1"
   id="svg1"
   width="510.63831"
   height="510.63831"
   viewBox="0 0 510.63831 510.63831"
   sodipodi:docname="cnw.svg"
   inkscape:version="1.3.2 (091e20e, 2023-11-25, custom)"
   xmlns:inkscape="http://www.inkscape.org/namespaces/inkscape"
   xmlns:sodipodi="http://sodipodi.sourceforge.net/DTD/sodipodi-0.dtd"
   xmlns="http://www.w3.org/2000/svg"
   xmlns:svg="http://www.w3.org/2000/svg">
  <defs
     id="defs1" />
  <sodipodi:namedview
     id="namedview1"
     pagecolor="#505050"
     bordercolor="#ffffff"
     borderopacity="1"
     inkscape:showpageshadow="0"
     inkscape:pageopacity="0"
     inkscape:pagecheckerboard="1"
     inkscape:deskcolor="#505050"
     showgrid="false"
     showguides="false"
     inkscape:zoom="1"
     inkscape:cx="98.499997"
     inkscape:cy="452.49999"
     inkscape:window-width="1920"
     inkscape:window-height="1009"
     inkscape:window-x="1912"
     inkscape:window-y="-8"
     inkscape:window-maximized="1"
     inkscape:current-layer="g1"
     inkscape:document-units="mm">
    <sodipodi:guide
       position="269.81949,201.08131"
       orientation="0,-1"
       id="guide1"
       inkscape:locked="false" />
    <sodipodi:guide
       position="292.12499,175.76603"
       orientation="0,-1"
       id="guide2"
       inkscape:locked="false" />
    <sodipodi:guide
       position="168.82175,196.19676"
       orientation="0,-1"
       id="guide3"
       inkscape:locked="false" />
    <sodipodi:guide
       position="164.22555,188.50698"
       orientation="0,1"
       id="guide4"
       inkscape:locked="false"
       inkscape:label=""
       inkscape:color="rgb(0,134,229)" />
    <sodipodi:guide
       position="167.45173,180.68461"
       orientation="0,-1"
       id="guide6"
       inkscape:locked="false" />
    <sodipodi:guide
       position="207.13809,205.16818"
       orientation="1,0"
       id="guide7"
       inkscape:locked="false" />
    <sodipodi:guide
       position="211.95526,204.50527"
       orientation="1,0"
       id="guide8"
       inkscape:locked="false" />
    <sodipodi:guide
       position="221.85475,203.93074"
       orientation="1,0"
       id="guide9"
       inkscape:locked="false" />
    <sodipodi:guide
       position="226.72341,201.08047"
       orientation="1,0"
       id="guide10"
       inkscape:locked="false" />
    <sodipodi:guide
       position="238.40158,200.97028"
       orientation="1,0"
       id="guide11"
       inkscape:locked="false" />
    <sodipodi:guide
       position="244.02208,200.97028"
       orientation="1,0"
       id="guide12"
       inkscape:locked="false" />
    <sodipodi:guide
       position="248.73109,189.03894"
       orientation="1,0"
       id="guide13"
       inkscape:locked="false" />
    <sodipodi:guide
       position="254.00816,200.97028"
       orientation="1,0"
       id="guide14"
       inkscape:locked="false" />
    <sodipodi:guide
       position="258.95552,189.06901"
       orientation="1,0"
       id="guide15"
       inkscape:locked="false" />
    <sodipodi:guide
       position="264.08284,200.97028"
       orientation="1,0"
       id="guide16"
       inkscape:locked="false" />
    <sodipodi:guide
       position="269.506,200.97028"
       orientation="1,0"
       id="guide17"
       inkscape:locked="false" />
    <sodipodi:guide
       position="272.48438,257.12268"
       orientation="1,0"
       id="guide18"
       inkscape:locked="false" />
    <sodipodi:guide
       position="277.42188,256.82581"
       orientation="1,0"
       id="guide19"
       inkscape:locked="false" />
    <sodipodi:guide
       position="282.71875,256.26331"
       orientation="1,0"
       id="guide20"
       inkscape:locked="false" />
    <sodipodi:guide
       position="287.60938,258.90393"
       orientation="1,0"
       id="guide21"
       inkscape:locked="false" />
    <sodipodi:guide
       position="298.0771,201.04968"
       orientation="1,0"
       id="guide22"
       inkscape:locked="false" />
    <sodipodi:guide
       position="305.25068,195.26751"
       orientation="1,0"
       id="guide23"
       inkscape:locked="false" />
    <sodipodi:guide
       position="310.35706,195.50796"
       orientation="1,0"
       id="guide24"
       inkscape:locked="false" />
    <sodipodi:guide
       position="316.59575,201.04968"
       orientation="1,0"
       id="guide25"
       inkscape:locked="false" />
    <sodipodi:guide
       position="319.38585,200.41252"
       orientation="1,0"
       id="guide26"
       inkscape:locked="false" />
    <sodipodi:guide
       position="334.97873,200.65403"
       orientation="1,0"
       id="guide27"
       inkscape:locked="false" />
    <sodipodi:guide
       position="326.74973,195.57443"
       orientation="1,0"
       id="guide28"
       inkscape:locked="false" />
    <sodipodi:guide
       position="295.67801,185.36171"
       orientation="1,0"
       id="guide29"
       inkscape:locked="false" />
    <sodipodi:guide
       position="193.53066,195.50796"
       orientation="1,0"
       id="guide30"
       inkscape:locked="false" />
    <sodipodi:guide
       position="188.62074,205.96367"
       orientation="1,0"
       id="guide31"
       inkscape:locked="false" />
    <sodipodi:guide
       position="175.36248,196.99226"
       orientation="1,0"
       id="guide33"
       inkscape:locked="false" />
    <sodipodi:guide
       position="180.26804,183.99917"
       orientation="1,0"
       id="guide34"
       inkscape:locked="false" />
    <sodipodi:guide
       position="192.42143,198.62745"
       orientation="1,0"
       id="guide32"
       inkscape:locked="false" />
  </sodipodi:namedview>
  <g
     inkscape:groupmode="layer"
     inkscape:label="CNW Logo"
     id="g1">
    <g
       id="g34">
      <ellipse
         style="fill:#ffffff;fill-opacity:1;stroke-width:5.89218"
         id="path32"
         cx="255.30399"
         cy="255.76323"
         rx="158.6022"
         ry="163.85973" />
      <path
         style="fill:#073f8a;fill-opacity:1;stroke-width:0.444128"
         d="m 222.91466,419.78396 -19.17097,8.34086 -11.46025,-17.30671 -19.56634,4.31301 -7.65884,-18.30303 -21.24662,0.46827 -4.83197,-20.89815 -19.15795,-3.04011 -0.57363,-20.53843 -19.506484,-7.59143 3.267734,-19.10791 -17.879496,-11.68764 7.914716,-18.6805 -15.004283,-14.65638 9.808902,-17.53104 -12.20912,-16.71606 14.295607,-15.38697 -8.889943,-18.28676 17.772497,-11.64902 -6.949816,-20.98806 19.192286,-8.96044 -1.42357,-19.96558 20.58146,-4.74385 0.57683,-20.67185 22.4704,-1.53104 c 0.11484,-0.008 3.95466,-19.97382 4.55771,-19.92446 l 22.49213,1.84088 8.25288,-17.7473 20.15743,6.498304 12.4118,-16.554185 19.48655,10.934527 c 0.88695,0.497698 14.315,-14.490965 15.75029,-13.268219 l 14.40038,12.267949 19.03213,-9.61418 12.28996,16.374492 19.87584,-6.135285 12.16799,18.033947 17.64486,-2.78315 7.48906,20.10571 20.47062,1.1087 3.19405,21.23275 c 0.0982,0.65284 18.39825,4.33287 18.6492,4.58379 0.24734,0.24734 -1.91392,19.47648 -1.09369,19.9151 l 18.08321,9.66999 -4.85807,18.87542 16.40089,13.26034 -10.26282,18.46055 15.10969,15.38898 -11.96928,17.00528 10.58949,16.6234 -15.44208,13.91315 7.55017,19.31375 -18.27834,10.5403 4.24307,20.92342 -19.05225,6.53491 -0.72123,21.19923 -19.96812,3.189 -4.42944,20.33666 -19.98143,-1.05298 -8.54108,19.40643 -19.68011,-4.07194 -12.35367,17.40394 -18.05061,-8.60993 -15.74465,14.90723 -17.69024,-11.94168 -17.9628,12.84127 z m -29.384,-84.91168 -1.10923,-4.91858 h -3.80069 c -6.05459,0 -8.3527,-4.06385 -8.3527,-7.82237 0,-5.43387 4.55201,-7.68978 8.3527,-7.68978 h 3.80069 l 1.10923,-4.88455 h -4.90992 c -8.3527,0 -13.25826,4.88455 -13.25826,12.57433 0,7.82237 4.90556,12.74095 13.25826,12.74095 z m 18.4246,-13.27291 14.76815,13.27291 V 309.557 h -4.86866 v 12.04237 l -14.71666,-12.04237 0.002,25.30227 4.81498,0.013 z m 42.0529,3.67723 4.94736,9.59568 L 269.506,309.557 h -5.42316 l -5.12732,12.0123 -4.94736,-11.90127 -5.27707,11.93134 -4.70901,-12.04237 h -5.6205 l 10.32951,25.31528 z m 23.66805,-15.7196 h -5.10638 v 25.3153 l 5.10638,-2e-5 z m 18.0018,20.61661 h -7.20745 l -0.01,-20.61661 h -5.56731 v 25.31528 h 12.78439 z m 14.67905,-15.04326 h 6.23869 V 309.557 H 298.0771 v 5.57335 h 7.17358 v 19.74195 l 5.10638,-2e-5 z m 24.62167,15.04326 h -8.229 l 8.229,-20.61661 h -15.59288 v 5.57335 h 7.36388 l -7.36388,19.74193 h 15.59288 z m -9.05052,-42.38192 c 14.05617,-3.9469 31.63352,-12.01472 44.03015,-20.20938 4.37372,-2.89119 12.34225,-9.67806 16.21066,-13.80674 6.57769,-7.02025 10.42035,-13.22742 13.1705,-21.27473 1.57476,-4.60797 1.67038,-5.20066 1.68382,-10.437 0.0148,-5.76872 -0.65961,-9.33172 -2.89957,-15.31854 -2.8045,-7.4957 -13.82542,-19.5088 -24.11972,-26.29115 -13.53274,-8.91599 -33.00683,-15.77219 -55.78656,-19.64064 -13.60403,-2.31025 -16.08571,-2.47408 -37.52879,-2.47759 -21.64977,-0.004 -26.13819,0.2738 -39.52737,2.44251 -28.65563,4.64149 -50.49288,11.80023 -70.17217,23.004 -7.26458,4.13586 -17.7651,12.52885 -17.7651,12.52885 0,0 0.94584,0.39997 4.5156,-1.63128 8.95544,-5.09579 26.093,-12.87614 37.01033,-16.33264 12.93977,-4.09681 30.6696,-7.73039 45.74515,-9.37507 8.9067,-0.97169 33.24675,-1.35764 42.81848,-0.67896 29.39039,2.08392 55.64923,9.91494 74.24258,22.14092 15.74928,10.35586 23.78054,22.33576 24.47945,36.515 0.26767,5.4303 -0.3431,8.63884 -2.82556,14.84354 -6.8419,17.10078 -23.69969,31.1702 -52.44946,43.77404 -8.80713,3.86102 -9.05927,4.53492 -0.83242,2.22486 z m -174.03654,-4.4326 c 4.9856,-0.52774 9.32301,-1.65798 21.98432,-5.72868 25.03358,-8.04848 31.68886,-8.32371 60.62343,-2.50709 11.48969,2.30973 19.01706,3.45797 21.38983,3.26286 l 1.70481,-0.14018 -1.4395,-0.78661 c -1.90066,-1.0386 -35.57261,-12.47784 -40.5974,-13.37138 -14.2341,-2.53119 -26.32008,-1.54027 -41.65323,4.29659 -16.90082,6.43362 -20.39605,6.75159 -33.11545,6.74369 -13.63094,-0.008 -20.74248,-1.25187 -35.19712,-6.15394 -3.96939,-1.34616 -7.217078,-2.29639 -7.217078,-2.11162 0,1.24062 5.974638,4.97228 13.978718,8.73089 14.53719,6.82648 26.39959,9.15627 39.53867,7.76547 z m 148.97664,-7.59965 c 5.39107,-0.6009 12.58194,-2.45182 19.67823,-5.06517 6.16035,-2.26867 11.94063,-5.05663 12.2197,-5.89384 0.22596,-0.6779 -2.17061,-0.7157 -5.88826,-0.0929 -8.99461,1.5069 -29.79084,2.29827 -46.63341,1.77456 -15.03572,-0.46752 -14.28789,-0.11013 -19.52756,-9.33218 -6.62245,-11.65578 -15.94089,-23.94738 -26.21759,-34.5826 -8.65176,-8.95359 -15.0927,-13.3096 -22.06511,-14.92265 -6.16909,-1.42721 -15.31958,1.26635 -24.09908,7.09385 -7.65902,5.08376 -26.95744,24.20217 -24.43006,24.20217 0.42928,0 2.95909,-1.3758 7.85657,-4.27267 13.2929,-7.86277 24.67396,-12.15037 30.64488,-11.54488 5.7596,0.58406 13.14391,4.61287 18.72441,10.21586 5.24671,5.26785 11.36981,15.58615 11.36981,19.15975 v 1.62484 l -10.32597,-0.37438 c -13.70627,-0.49693 -23.85686,-0.40781 -27.56627,0.24202 -7.19216,1.25996 -17.97275,5.74712 -24.50107,10.19797 -3.03908,2.07197 -3.94274,4.30066 -3.94274,4.30066 -0.0248,-0.36015 3.81355,-1.91296 6.22095,-2.87602 5.26589,-2.10658 11.15758,-3.98311 15.44626,-4.55988 15.32275,-2.06072 18.75233,-1.54527 23.69778,-0.8414 1.48813,0.2118 10.53584,2.39282 17.25328,4.57585 23.95392,7.78456 29.96004,11.15487 37.4303,11.82461 5.48099,0.49138 28.87582,-0.20947 34.65495,-0.85361 z m -21.50876,-16.10077 c 5.19351,-2.4185 8.65725,-9.0214 8.65725,-16.50323 0,-3.28565 -0.12379,-3.80522 -1.3464,-5.65103 -1.50408,-2.27075 -3.73182,-4.14591 -5.43257,-4.57277 -1.68016,-0.42169 -6.43764,0.94569 -9.20962,2.64701 -4.55385,2.79496 -8.58831,9.6978 -8.58418,14.6873 0.002,2.1402 1.52392,5.7421 3.16742,7.49514 2.86333,3.05417 8.47172,3.88899 12.7481,1.89758 z"
         id="path31"
         sodipodi:nodetypes="ccccccccccccccccccccccccssccccscccccccccssscccccccccccccccccccccccccczszccssscccccccccccccccccccccccccccccccccccccccccccccccccccsssssssscsscssssssssssssscssscsssssssssssssssssscsssssssssssssssscss" />
      <circle
         style="fill:#ffffff;fill-opacity:1"
         id="path33"
         cx="199.86813"
         cy="332.14133"
         r="2.7179418" />
      <circle
         style="fill:#ffffff;fill-opacity:1"
         id="path33-4"
         cx="233.00742"
         cy="332.1434"
         r="2.7179418" />
    </g>
  </g>
</svg>
